<?xml version="1.0" encoding="utf-8"?>
<!-- Generator: Adobe Illustrator 27.0.0, SVG Export Plug-In . SVG Version: 6.00 Build 0)  -->
<svg version="1.1" id="Capa_1" xmlns="http://www.w3.org/2000/svg" xmlns:xlink="http://www.w3.org/1999/xlink" x="0px" y="0px"
	 viewBox="0 0 850.4 850.4" style="enable-background:new 0 0 850.4 850.4;" xml:space="preserve">
<style type="text/css">
	.st0{font-family:'Poppins-Bold';}
	.st1{font-size:79.5838px;}
	.st2{letter-spacing:5;}
	.st3{font-family:'Poppins-Regular';}
	.st4{fill:url(#SVGID_1_);}
	.st5{fill:#FFFFFF;}
</style>
<text transform="matrix(1 0 0 1 181.8417 584.1296)"><tspan x="0" y="0" class="st0 st1 st2">adn</tspan><tspan x="194.3" y="0" class="st3 st1 st2">futbol</tspan></text>
<g>
	<linearGradient id="SVGID_1_" gradientUnits="userSpaceOnUse" x1="309.2952" y1="360.2927" x2="541.0985" y2="360.2927">
		<stop  offset="0" style="stop-color:#B2FF59"/>
		<stop  offset="0.2352" style="stop-color:#5DBD3F"/>
		<stop  offset="0.4233" style="stop-color:#208D2C"/>
		<stop  offset="0.5123" style="stop-color:#087A25"/>
		<stop  offset="0.682" style="stop-color:#056D28"/>
		<stop  offset="1" style="stop-color:#00572D"/>
	</linearGradient>
	<path class="st4" d="M491,476.2H359.4c-27.7,0-50.1-22.4-50.1-50.1V294.5c0-27.7,22.4-50.1,50.1-50.1H491
		c27.7,0,50.1,22.4,50.1,50.1v131.7C541.1,453.8,518.7,476.2,491,476.2z"/>
	<g>
		<path class="st5" d="M460.6,377.1c-0.3,0.4-0.5,0.8-0.8,1.2c-3.1,4.6-6.4,9-11,12.4c-6.8,5-14.5,7-22.8,6.6
			c-10.1-0.4-18.7-4.3-26-11.2c-4.4-4.2-7.6-9.2-10.8-14.2c-4-6.3-8-12.7-12.2-19c-3.1-4.7-7.3-8-12.8-9.5c-8-2.1-16.6,0.9-21.8,7.8
			c-7.1,9.2-6.1,22.2,2.6,29.8c9,7.9,23.7,7,31.3-3.7c2.7-3.8,4.2-8,4.1-13c1.3,2.1,2.5,3.9,3.7,5.7c1.1,1.7,2.2,3.4,3.2,5.2
			c0.3,0.6,0.6,1.3,0.6,1.9c0,6,0,12,0,18c0,1.6-0.1,1.7-1.7,1.7c-2.4,0-4.8,0-7.2,0c-1,0-1.4-0.4-1.4-1.4c0-1.5,0-3,0-4.7
			c-1.3,0.8-2.4,1.4-3.4,2c-18.6,10.3-42.4-0.8-46.2-22.4c-3.6-20.3,11.8-37.3,30-38.1c8.5-0.4,15.8,2.7,22.1,8.4
			c3.5,3.2,6.1,7.1,8.6,11.1c4.3,6.7,8.5,13.4,12.9,20c3.3,5,7.5,9,12.7,11.8c4.7,2.5,9.8,3.6,15.1,3.2c8.9-0.6,15.5-5.1,20.4-12.3
			c5.4-7.9,10.1-16.2,14.7-24.6c2.4-4.4,5.3-8.3,9.3-11.4c10.1-7.9,24.2-8.5,34.8-1.3c9.1,6.2,13.9,14.9,14.1,25.9
			c0.2,9.4,0,18.8,0,28.2c0,1.4,0,2.8,0,4.2c0,0.8-0.3,1.3-1.2,1.3c-2.7,0-5.3,0-8,0c-0.7,0-1.1-0.3-1.1-1c0-0.6,0-1.3,0-1.9
			c0-10,0-19.9,0-29.9c0-6.1-2.1-11.4-6.5-15.7c-6.9-6.6-17.5-7.5-25.3-2c-5.2,3.6-8.1,8.6-9,14.8c-0.2,1.4-0.3,2.8-0.3,4.2
			c0,9.6,0,19.1,0,28.7c0,0.6,0,1.3,0,1.9c0,0.7-0.4,1.1-1.1,1.1c-2.8,0-5.5,0-8.3,0c-0.6,0-1-0.4-1-1c0-0.4,0-0.8,0-1.3
			c0-5.3,0-10.5,0-15.8c0-0.5,0-1.1-0.1-1.6C460.8,377.2,460.7,377.2,460.6,377.1z"/>
		<path class="st5" d="M449,339.6c0-1.2,0-2.1,0-3c0-7.3,0-14.6,0-21.9c0-1.7,0.1-1.8,1.8-1.8c2.2,0,4.4,0,6.6,0c2,0,2.1,0,2.1,2.1
			c0,10,0,20.1,0,30.1c0,1.8,0,3.7,0,5.5c0,0.6-0.1,1.2-0.3,1.6c-2.2,3.7-4.4,7.3-6.8,11c-1.4-7-5-12.5-10.9-16.5
			c-6-4-12.4-4.9-19.3-3.2c-8.5,2.2-19.2,11.5-17.4,26.7c-0.1,0.1-0.5-0.2-0.7-0.5c-2.5-3.7-5.1-7.4-7.6-11.1
			c-0.6-0.9-0.7-1.7-0.4-2.8c6.1-18.9,27.3-28.6,45.4-20.9c2.1,0.9,4,2.2,6,3.3C447.8,338.7,448.2,339,449,339.6z"/>
		<g>
			<path class="st5" d="M427.2,347.8c0.7,0,1.4,0,2.1,0c0.2,0,0.5,0.1,0.7,0.1c3.7,0.4,7.1,1.8,9.9,4.2c3.7,3.2,5.7,7.3,5.9,12.1
				c0.2,3.1-0.5,6-2.1,8.7c-3.2,5.6-8.2,8.6-14.8,9c-3.2,0.2-6.2-0.5-9-2c-5-2.6-8-6.7-9.1-12.1c-0.1-0.6-0.2-1.3-0.3-2
				c0-0.7,0-1.3,0-2c0-0.1,0.1-0.2,0.1-0.3c0.2-2.4,0.8-4.6,2-6.7c2.7-4.8,6.9-7.7,12.5-8.8C425.8,347.9,426.5,347.9,427.2,347.8z
				 M428.8,355.6C428.8,355.6,428.8,355.6,428.8,355.6c0,0.9,0,1.7,0,2.6c0,0.2,0.1,0.4,0.2,0.5c1.8,1.4,3.5,2.7,5.3,4.1
				c0.2,0.1,0.3,0.2,0.5,0.1c1.8-0.6,3.6-1.2,5.4-1.7c0.2-0.1,0.3-0.2,0.4-0.4c0.4-1.5,0.7-3,1.1-4.5c0-0.1,0-0.3-0.1-0.4
				c-1.7-2.3-3.8-4.1-6.5-5.3c-0.1-0.1-0.3-0.1-0.5,0c-1.9,0.7-3.7,1.4-5.6,2.2c-0.2,0.1-0.3,0.2-0.3,0.4
				C428.9,353.9,428.8,354.7,428.8,355.6z M427.6,355.6c0-0.9,0-1.8,0-2.6c0-0.2-0.1-0.3-0.3-0.4c-1.9-0.7-3.8-1.4-5.7-2.2
				c-0.1,0-0.3,0-0.4,0c-2.7,1.2-4.8,3-6.5,5.4c-0.1,0.1-0.1,0.3-0.1,0.4c0.4,1.5,0.7,3,1.1,4.6c0,0.2,0.1,0.3,0.3,0.4
				c1.8,0.6,3.6,1.2,5.5,1.7c0.1,0,0.3,0,0.5-0.1c1.8-1.4,3.6-2.8,5.4-4.2c0.1-0.1,0.2-0.3,0.2-0.4
				C427.6,357.3,427.6,356.5,427.6,355.6z M444.6,366.4c0,0,0-0.1-0.1-0.2c-1.1-1.3-2.2-2.6-3.3-3.9c-0.1-0.1-0.2-0.1-0.3-0.1
				c-1.8,0.6-3.7,1.2-5.5,1.8c-0.1,0-0.2,0.2-0.3,0.3c-0.6,2.1-1.1,4.2-1.6,6.3c0,0.1,0,0.2,0.1,0.3c0.9,1.1,1.7,2.3,2.6,3.4
				c0.1,0.1,0.2,0.1,0.3,0.1c1.8-0.3,3.6-0.5,5.4-0.8c0.1,0,0.2-0.1,0.3-0.2C443.5,371.3,444.3,369,444.6,366.4z M420.2,374.5
				c0.1-0.1,0.2-0.1,0.2-0.2c0.8-1.1,1.7-2.1,2.5-3.2c0.1-0.1,0.1-0.3,0.1-0.4c-0.5-2.1-1.1-4.2-1.6-6.2c0-0.1-0.2-0.3-0.3-0.3
				c-1.8-0.6-3.7-1.2-5.5-1.8c-0.2-0.1-0.3,0-0.4,0.1c-1.1,1.3-2.2,2.5-3.3,3.8c-0.1,0.1-0.1,0.2-0.1,0.4c0.3,2.4,1.1,4.6,2.4,6.7
				c0.2,0.3,0.3,0.4,0.6,0.4c1,0.1,1.9,0.3,2.9,0.4C418.6,374.2,419.4,374.3,420.2,374.5z M421.3,375.2c1.1,1.7,2.3,3.4,3.4,5.1
				c0.1,0.1,0.2,0.1,0.3,0.2c2.3,0.5,4.6,0.4,6.9-0.1c0.1,0,0.3-0.1,0.3-0.3c0.9-1.6,1.8-3.1,2.8-4.7c0.1-0.2,0.1-0.3,0-0.5
				c-0.8-1-1.7-2.1-2.5-3.2c-0.1-0.2-0.3-0.3-0.5-0.3c-2.4,0-4.8,0-7.3,0c-0.4,0-0.7,0.1-0.9,0.4C423,373.1,422.2,374.1,421.3,375.2
				z"/>
		</g>
	</g>
</g>
</svg>
